<svg xmlns="http://www.w3.org/2000/svg" xmlns:xlink="http://www.w3.org/1999/xlink" width="163px" height="103px">
<path fill-rule="evenodd" fill="rgb(232, 130, 80)" d="M0.812,23.809 L115.240,23.809 L162.135,0.649 L47.713,0.649 L0.812,23.809 Z"/>
<path fill-rule="evenodd" fill="rgb(227, 106, 45)" d="M0.812,56.704 L115.240,56.704 L115.240,23.809 L0.812,23.809 L0.812,56.704 Z"/>
<path fill-rule="evenodd" fill="rgb(153, 70, 36)" d="M162.135,0.649 L115.240,23.809 L115.240,56.703 L162.135,33.544 L162.135,0.649 Z"/>
<path fill-rule="evenodd" fill="rgb(227, 106, 45)" d="M0.812,102.135 L115.240,102.135 L115.240,69.241 L0.812,69.241 L0.812,102.135 Z"/>
<path fill-rule="evenodd" fill="rgb(153, 70, 36)" d="M162.135,46.086 L115.240,69.241 L115.240,102.135 L162.135,78.981 L162.135,46.086 Z"/>
<path fill-rule="evenodd" fill="rgb(207, 93, 44)" d="M5.202,69.241 L115.240,69.241 L115.240,56.703 L5.202,56.703 L5.202,69.241 Z"/>
<path fill-rule="evenodd" fill="rgb(112, 47, 31)" d="M160.423,46.932 L115.240,69.240 L115.240,56.703 L160.423,34.389 L160.423,46.932 Z"/>
</svg>