<svg xmlns="http://www.w3.org/2000/svg" xmlns:xlink="http://www.w3.org/1999/xlink" width="161px" height="102px">
<path fill-rule="evenodd" fill="rgb(140, 48, 38)" d="M123.000,79.000 L161.000,79.000 L161.000,-0.000 L123.000,-0.000 L123.000,79.000 Z"/>
<path fill-rule="evenodd" fill="rgb(137, 47, 39)" d="M-0.000,102.000 L114.199,102.000 L161.000,79.000 L46.806,79.000 L-0.000,102.000 Z"/>
<path fill-rule="evenodd" fill="rgb(208, 92, 44)" d="M7.000,101.000 L113.000,101.000 L113.000,22.000 L7.000,22.000 L7.000,101.000 Z"/>
<path fill-rule="evenodd" fill="rgb(153, 70, 36)" d="M155.000,2.000 L113.000,22.552 L113.000,101.000 L155.000,79.388 L155.000,2.000 Z"/>
<path fill-rule="evenodd" fill="rgb(232, 130, 80)" d="M-0.000,22.000 L115.555,22.000 L161.000,-0.000 L46.806,-0.000 L-0.000,22.000 Z"/>
<path fill-rule="evenodd" fill="rgb(227, 106, 45)" d="M-0.000,63.000 L116.000,63.000 L116.000,22.000 L-0.000,22.000 L-0.000,63.000 Z"/>
</svg>